<?xml version="1.0" standalone="no"?>
<!DOCTYPE svg PUBLIC "-//W3C//DTD SVG 20010904//EN"
 "http://www.w3.org/TR/2001/REC-SVG-20010904/DTD/svg10.dtd">
<svg version="1.0" xmlns="http://www.w3.org/2000/svg"
 width="512.000000pt" height="512.000000pt" viewBox="0 0 512.000000 512.000000"
 preserveAspectRatio="xMidYMid meet">
<metadata>
Created by potrace 1.14, written by Peter Selinger 2001-2017
</metadata>
<g transform="translate(0.000000,512.000000) scale(0.100000,-0.100000)"
fill="#000000" stroke="none">
<path d="M1645 4203 c-289 -30 -682 -34 -930 -9 -88 9 -169 18 -180 21 -17 3
-28 -8 -55 -58 -19 -34 -36 -65 -38 -69 -2 -4 59 -4 135 -1 154 7 199 -2 246
-45 50 -47 59 -102 64 -371 11 -511 -70 -1789 -132 -2120 -60 -314 -180 -463
-395 -490 -182 -23 -291 38 -339 192 l-20 62 0 -187 -1 -186 53 -12 c186 -40
477 -48 612 -16 348 81 499 334 549 926 18 212 31 455 51 950 21 509 50 874
82 1014 31 139 83 220 168 262 48 23 73 28 163 32 l106 5 46 50 c49 54 65 78
53 76 -4 -1 -111 -12 -238 -26z"/>
<path d="M2163 4140 c-23 -39 -39 -70 -35 -70 4 0 52 7 108 16 232 38 309 -14
335 -226 13 -105 7 -615 -11 -925 -33 -569 -57 -908 -86 -1165 -20 -184 -62
-435 -81 -481 -42 -106 -254 -200 -457 -203 l-89 -1 -28 -60 c-15 -33 -28 -62
-28 -65 -1 -3 43 -2 97 2 542 39 1046 47 1262 19 41 -6 102 -13 135 -16 l60
-6 38 65 c20 35 37 67 37 70 0 3 -44 6 -97 6 -126 0 -262 16 -313 36 -43 17
-95 70 -111 113 -23 59 -30 136 -29 323 0 360 74 1419 140 2023 35 314 44 344
113 379 54 26 325 43 448 28 351 -43 557 -287 536 -632 -23 -356 -217 -612
-550 -726 -92 -31 -221 -54 -308 -54 l-68 0 -35 -59 c-20 -32 -36 -62 -36 -66
0 -4 65 -5 143 -1 l144 7 55 -68 c74 -91 159 -223 443 -688 131 -214 260 -418
288 -452 117 -145 280 -244 484 -295 73 -18 118 -22 268 -22 l180 -1 3 95 2
95 -57 25 c-32 13 -103 55 -158 91 -270 181 -556 505 -819 927 -85 137 -236
411 -236 429 0 6 17 17 38 24 143 46 303 170 424 329 69 90 153 266 179 375
17 69 22 120 21 215 -1 339 -140 517 -472 604 -177 47 -391 58 -680 35 -423
-32 -862 -26 -1125 16 -28 5 -33 1 -72 -65z"/>
<path d="M1 1648 c1 -80 -1 -84 23 45 4 19 1 27 -9 27 -12 0 -15 -15 -14 -72z"/>
</g>
</svg>
